<?xml version="1.0" standalone="no"?>
<!DOCTYPE svg PUBLIC "-//W3C//DTD SVG 20010904//EN"
 "http://www.w3.org/TR/2001/REC-SVG-20010904/DTD/svg10.dtd">
<svg version="1.0" xmlns="http://www.w3.org/2000/svg"
 width="104.000000pt" height="104.000000pt" viewBox="0 0 104.000000 104.000000"
 preserveAspectRatio="xMidYMid meet">

<g transform="translate(0.000000,104.000000) scale(0.100000,-0.100000)"
fill="#000000" stroke="none">
<path d="M410 1025 c-198 -45 -353 -202 -395 -400 -18 -88 -18 -122 0 -210 64
-304 375 -482 673 -384 299 98 439 451 290 731 -108 203 -346 313 -568 263z
m237 -299 l28 -24 3 -226 c2 -124 0 -226 -3 -226 -4 0 -41 30 -82 67 l-74 66
-67 -66 c-37 -37 -71 -67 -75 -67 -4 0 -7 97 -7 215 0 220 7 264 42 278 7 3
57 6 110 6 89 1 99 -1 125 -23z"/>
</g>
</svg>
